<svg id="icons" enable-background="new 0 0 64 64" height="512" viewBox="0 0 64 64" width="512" xmlns="http://www.w3.org/2000/svg"><g><g><g><path d="m14.5 45c.83 0 1.5.67 1.5 1.5s-.67 1.5-1.5 1.5-3.5-.67-3.5-1.5 2.67-1.5 3.5-1.5z" fill="#a0d468"/></g><g><path d="m16 42.5c0 .83.67 1.5 1.5 1.5s3.5-.67 3.5-1.5-2.67-1.5-3.5-1.5-1.5.67-1.5 1.5zm-1.5 2.5c-.83 0-3.5.67-3.5 1.5s2.67 1.5 3.5 1.5 1.5-.67 1.5-1.5-.67-1.5-1.5-1.5zm1.5-7c1.66 0 3-1.35 3-3v-3.5c0-.83-.67-1.5-1.5-1.5h-3c-.83 0-1.5.67-1.5 1.5v3.5c0 1.65 1.34 3 3 3zm13.99-25v46.01h-27.99v-46.01h7v6h-2v3h18v-3h-2v-6z" fill="#656d78"/></g><g><path d="m17.5 33c.83 0 1.5-.67 1.5-1.5v3.5c0 1.65-1.34 3-3 3s-3-1.35-3-3v-3.5c0 .83.67 1.5 1.5 1.5z" fill="#ed5565"/></g><g><path d="m30 59.01v3.99h-28v-3.99h27.99z" fill="#545c66"/></g><g><path d="m17.5 41c.83 0 3.5.67 3.5 1.5s-2.67 1.5-3.5 1.5-1.5-.67-1.5-1.5.67-1.5 1.5-1.5z" fill="#a0d468"/></g><g><path d="m17.5 30c.83 0 1.5.67 1.5 1.5s-.67 1.5-1.5 1.5h-3c-.83 0-1.5-.67-1.5-1.5s.67-1.5 1.5-1.5z" fill="#da4453"/></g><g><path d="m62 59.01v3.99h-28v-3.99h.01z" fill="#545c66"/></g><g><path d="m48 42.5c0 .83-.67 1.5-1.5 1.5s-3.5-.67-3.5-1.5 2.67-1.5 3.5-1.5 1.5.67 1.5 1.5z" fill="#a0d468"/></g><g><path d="m48 38c1.66 0 3-1.35 3-3v-3.5c0-.83-.67-1.5-1.5-1.5h-3c-.83 0-1.5.67-1.5 1.5v3.5c0 1.65 1.34 3 3 3zm-1.5 6c.83 0 1.5-.67 1.5-1.5s-.67-1.5-1.5-1.5-3.5.67-3.5 1.5 2.67 1.5 3.5 1.5zm3 1c-.83 0-1.5.67-1.5 1.5s.67 1.5 1.5 1.5 3.5-.67 3.5-1.5-2.67-1.5-3.5-1.5zm12.5-32v46.01h-27.99v-46.01h6.99v6h-2v3h18v-3h-2v-6z" fill="#656d78"/></g><g><path d="m49.5 33h-3c-.83 0-1.5-.67-1.5-1.5s.67-1.5 1.5-1.5h3c.83 0 1.5.67 1.5 1.5s-.67 1.5-1.5 1.5z" fill="#da4453"/></g><g><path d="m45 31.5c0 .83.67 1.5 1.5 1.5h3c.83 0 1.5-.67 1.5-1.5v3.5c0 1.65-1.34 3-3 3s-3-1.35-3-3z" fill="#ed5565"/></g><g><path d="m49.5 45c.83 0 3.5.67 3.5 1.5s-2.67 1.5-3.5 1.5-1.5-.67-1.5-1.5.67-1.5 1.5-1.5z" fill="#a0d468"/></g><g><path d="m55 13v6h-14v-6-5c0-3.87 3.14-7 7-7 3.87 0 7 3.13 7 7z" fill="#e6e9ed"/></g><g><path d="m57 19v3h-18v-3h2 14z" fill="#aab2bd"/></g><g><path d="m23 13v6h-14v-6-5c0-3.87 3.13-7 7-7 3.86 0 7 3.13 7 7z" fill="#e6e9ed"/></g><g><path d="m25 19v3h-18v-3h2 14z" fill="#aab2bd"/></g></g><g><g><path d="m16.002 52.998c-.553 0-1-.447-1-1v-14.001c0-.553.447-1 1-1s1 .447 1 1v14.001c0 .553-.447 1-1 1z" fill="#8cc152"/></g><g><path d="m16.002 38.997c-2.206 0-4-1.794-4-4 0-.553.447-1 1-1s1 .447 1 1c0 1.103.897 2 2 2s2-.897 2-2c0-.553.447-1 1-1s1 .447 1 1c0 2.206-1.794 4-4 4z" fill="#ed5565"/></g><g><path d="m13.002 35.997c-.553 0-1-.447-1-1v-3.499c0-.553.447-1 1-1s1 .447 1 1v3.499c0 .553-.447 1-1 1z" fill="#ed5565"/></g><g><path d="m19.002 35.997c-.553 0-1-.447-1-1v-3.499c0-.553.447-1 1-1s1 .447 1 1v3.499c0 .553-.447 1-1 1z" fill="#ed5565"/></g><g><path d="m47.998 52.998c-.553 0-1-.447-1-1v-14.001c0-.553.447-1 1-1s1 .447 1 1v14.001c0 .553-.447 1-1 1z" fill="#8cc152"/></g><g><path d="m19 8.998h-6c-.553 0-1-.447-1-1s.447-1 1-1h6c.553 0 1 .447 1 1s-.447 1-1 1z" fill="#ccd1d9"/></g><g><path d="m19 11.998h-6c-.553 0-1-.447-1-1s.447-1 1-1h6c.553 0 1 .447 1 1s-.447 1-1 1z" fill="#ccd1d9"/></g><g><path d="m19 14.998h-6c-.553 0-1-.447-1-1s.447-1 1-1h6c.553 0 1 .447 1 1s-.447 1-1 1z" fill="#ccd1d9"/></g><g><path d="m14.502 33.998c-1.379 0-2.5-1.121-2.5-2.5s1.121-2.5 2.5-2.5c.553 0 1 .447 1 1s-.447 1-1 1c-.275 0-.5.225-.5.5s.225.5.5.5c.553 0 1 .447 1 1s-.447 1-1 1z" fill="#da4453"/></g><g><path d="m17.502 33.998c-.553 0-1-.447-1-1s.447-1 1-1c.275 0 .5-.225.5-.5s-.225-.5-.5-.5c-.553 0-1-.447-1-1s.447-1 1-1c1.379 0 2.5 1.121 2.5 2.5s-1.121 2.5-2.5 2.5z" fill="#da4453"/></g><g><path d="m17.502 30.998h-3c-.553 0-1-.447-1-1s.447-1 1-1h3c.553 0 1 .447 1 1s-.447 1-1 1z" fill="#da4453"/></g><g><path d="m17.502 33.998h-3c-.553 0-1-.447-1-1s.447-1 1-1h3c.553 0 1 .447 1 1s-.447 1-1 1z" fill="#da4453"/></g><g><path d="m17.502 44.999c-1.379 0-2.5-1.121-2.5-2.5s1.121-2.5 2.5-2.5c.534 0 4.502.528 4.502 2.5s-3.968 2.5-4.502 2.5zm0-3c-.275 0-.5.225-.5.5s.225.5.5.5c.451 0 1.412-.242 2.043-.5-.631-.258-1.592-.5-2.043-.5z" fill="#a0d468"/></g><g><path d="m14.504 48.999c-.534 0-4.502-.528-4.502-2.5s3.968-2.5 4.502-2.5c1.379 0 2.5 1.121 2.5 2.5s-1.121 2.5-2.5 2.5zm-2.043-2.5c.63.258 1.592.5 2.043.5.275 0 .5-.225.5-.5s-.225-.5-.5-.5c-.451 0-1.413.242-2.043.5z" fill="#a0d468"/></g><g><path d="m51 8.998h-6c-.553 0-1-.447-1-1s.447-1 1-1h6c.553 0 1 .447 1 1s-.447 1-1 1z" fill="#ccd1d9"/></g><g><path d="m51 11.998h-6c-.553 0-1-.447-1-1s.447-1 1-1h6c.553 0 1 .447 1 1s-.447 1-1 1z" fill="#ccd1d9"/></g><g><path d="m51 14.998h-6c-.553 0-1-.447-1-1s.447-1 1-1h6c.553 0 1 .447 1 1s-.447 1-1 1z" fill="#ccd1d9"/></g><g><path d="m47.998 38.997c-2.206 0-4-1.794-4-4 0-.553.447-1 1-1s1 .447 1 1c0 1.103.897 2 2 2s2-.897 2-2c0-.553.447-1 1-1s1 .447 1 1c0 2.206-1.794 4-4 4z" fill="#ed5565"/></g><g><path d="m50.998 35.997c-.553 0-1-.447-1-1v-3.499c0-.553.447-1 1-1s1 .447 1 1v3.499c0 .553-.447 1-1 1z" fill="#ed5565"/></g><g><path d="m44.998 35.997c-.553 0-1-.447-1-1v-3.499c0-.553.447-1 1-1s1 .447 1 1v3.499c0 .553-.447 1-1 1z" fill="#ed5565"/></g><g><path d="m46.498 44.999c-.534 0-4.502-.528-4.502-2.5s3.968-2.5 4.502-2.5c1.379 0 2.5 1.121 2.5 2.5s-1.121 2.5-2.5 2.5zm-2.043-2.5c.631.258 1.592.5 2.043.5.275 0 .5-.225.5-.5s-.225-.5-.5-.5c-.451 0-1.412.242-2.043.5z" fill="#a0d468"/></g><g><path d="m49.496 48.999c-1.379 0-2.5-1.121-2.5-2.5s1.121-2.5 2.5-2.5c.534 0 4.502.528 4.502 2.5s-3.968 2.5-4.502 2.5zm0-3c-.275 0-.5.225-.5.5s.225.5.5.5c.451 0 1.413-.242 2.043-.5-.63-.258-1.592-.5-2.043-.5z" fill="#a0d468"/></g><g><path d="m49.498 33.998c-.553 0-1-.447-1-1s.447-1 1-1c.275 0 .5-.225.5-.5s-.225-.5-.5-.5c-.553 0-1-.447-1-1s.447-1 1-1c1.379 0 2.5 1.121 2.5 2.5s-1.121 2.5-2.5 2.5z" fill="#da4453"/></g><g><path d="m46.498 33.998c-1.379 0-2.5-1.121-2.5-2.5s1.121-2.5 2.5-2.5c.553 0 1 .447 1 1s-.447 1-1 1c-.275 0-.5.225-.5.5s.225.5.5.5c.553 0 1 .447 1 1s-.447 1-1 1z" fill="#da4453"/></g><g><path d="m49.498 30.998h-3c-.553 0-1-.447-1-1s.447-1 1-1h3c.553 0 1 .447 1 1s-.447 1-1 1z" fill="#da4453"/></g><g><path d="m49.498 33.998h-3c-.553 0-1-.447-1-1s.447-1 1-1h3c.553 0 1 .447 1 1s-.447 1-1 1z" fill="#da4453"/></g></g></g></svg>