<?xml version="1.0" encoding="iso-8859-1"?>
<!-- Generator: Adobe Illustrator 19.0.0, SVG Export Plug-In . SVG Version: 6.00 Build 0)  -->
<svg version="1.1" id="Layer_1" xmlns="http://www.w3.org/2000/svg" xmlns:xlink="http://www.w3.org/1999/xlink" x="0px" y="0px"
	 viewBox="0 0 512 512" style="enable-background:new 0 0 512 512;" xml:space="preserve">
<path style="fill:#B8002B;" d="M349.091,124.121h-23.273H209.455H93.091H69.818c-12.853,0-23.273,10.42-23.273,23.273V287.03
	c0,55.608,45.241,100.848,100.848,100.848h39.655h22.405h24.592h37.469c55.608,0,100.848-45.241,100.848-100.848V147.394
	C372.364,134.541,361.944,124.121,349.091,124.121z"/>
<path style="fill:#A4E276;" d="M325.818,512c76.995,0,139.636-62.641,139.636-139.635V23.273C465.455,10.42,455.035,0,442.182,0
	c-12.853,0-23.273,10.42-23.273,23.273v349.092c0,51.33-41.761,93.089-93.091,93.089c-46.043,0-84.364-33.607-91.772-77.576h-46.997
	C194.791,457.599,254.067,512,325.818,512z"/>
<path style="fill:#64C37D;" d="M69.818,124.121h23.273v-23.273c0-29.943,24.36-54.303,54.303-54.303h124.121
	c29.943,0,54.303,24.36,54.303,54.303v23.273h23.273c12.853,0,23.273,10.42,23.273,23.273v-46.545
	C372.364,45.241,327.123,0,271.515,0H147.394C91.786,0,46.545,45.241,46.545,100.848v46.545
	C46.545,134.541,56.965,124.121,69.818,124.121z"/>
<path style="fill:#D8143A;" d="M271.515,341.333c29.943,0,54.303-24.36,54.303-54.303V170.667H209.455v170.667H271.515z"/>
<path style="fill:#830018;" d="M147.394,341.333c-29.943,0-54.303-24.36-54.303-54.303V170.667h116.364v-46.545H93.091H69.818
	c-12.853,0-23.273,10.42-23.273,23.273V287.03c0,55.608,45.241,100.848,100.848,100.848h39.655h22.405v-46.545H147.394z"/>
<path style="fill:#B8002B;" d="M93.091,287.03c0,29.943,24.36,54.303,54.303,54.303h62.061V170.667H93.091V287.03z"/>
<g>
</g>
<g>
</g>
<g>
</g>
<g>
</g>
<g>
</g>
<g>
</g>
<g>
</g>
<g>
</g>
<g>
</g>
<g>
</g>
<g>
</g>
<g>
</g>
<g>
</g>
<g>
</g>
<g>
</g>
</svg>
